<svg width="261" height="31" viewBox="0 0 261 31" fill="none" xmlns="http://www.w3.org/2000/svg">
<path d="M29 16H47" stroke="url(#paint0_linear_1_15)" stroke-width="2.5" stroke-linecap="round"/>
<path d="M75 16H93" stroke="url(#paint1_linear_1_15)" stroke-width="2.5" stroke-linecap="round"/>
<path d="M121 16H139" stroke="#22C55E" stroke-width="2.5" stroke-linecap="round"/>
<path d="M134 10L142 16L134 22" stroke="#22C55E" stroke-width="2.5" stroke-linecap="round" stroke-linejoin="round"/>
<path d="M15 30C22.732 30 29 23.732 29 16C29 8.26801 22.732 2 15 2C7.26801 2 1 8.26801 1 16C1 23.732 7.26801 30 15 30Z" stroke="#555E76" stroke-width="2"/>
<path d="M61 30C68.732 30 75 23.732 75 16C75 8.26801 68.732 2 61 2C53.268 2 47 8.26801 47 16C47 23.732 53.268 30 61 30Z" fill="#FF6002"/>
<path d="M61 23C64.866 23 68 19.866 68 16C68 12.134 64.866 9 61 9C57.134 9 54 12.134 54 16C54 19.866 57.134 23 61 23Z" stroke="white" stroke-opacity="0.28" stroke-width="1.5"/>
<path d="M107 30C114.732 30 121 23.732 121 16C121 8.26801 114.732 2 107 2C99.268 2 93 8.26801 93 16C93 23.732 99.268 30 107 30Z" fill="#22C55E"/>
<path d="M99 18L104 24L116 10" stroke="white" stroke-width="2.5" stroke-linecap="round" stroke-linejoin="round"/>
<path d="M142.888 8.98757V5.81818H157.82V8.98757H152.254V24H148.454V8.98757H142.888ZM160.279 24V5.81818H172.531V8.98757H164.124V13.32H171.901V16.4893H164.124V20.8306H172.566V24H160.279ZM185.45 11.0472C185.379 10.3311 185.075 9.77474 184.536 9.3782C183.997 8.98165 183.266 8.78338 182.343 8.78338C181.716 8.78338 181.186 8.87216 180.754 9.04972C180.322 9.22135 179.991 9.46106 179.76 9.76882C179.535 10.0766 179.422 10.4258 179.422 10.8164C179.41 11.1419 179.479 11.426 179.627 11.6687C179.78 11.9113 179.991 12.1214 180.257 12.299C180.523 12.4706 180.831 12.6216 181.18 12.7518C181.529 12.8761 181.902 12.9826 182.299 13.0714L183.932 13.462C184.725 13.6396 185.453 13.8763 186.116 14.1722C186.779 14.4682 187.353 14.8321 187.839 15.2642C188.324 15.6963 188.7 16.2053 188.966 16.7912C189.238 17.3771 189.377 18.0489 189.383 18.8065C189.377 19.9192 189.093 20.8839 188.531 21.7006C187.975 22.5115 187.17 23.1418 186.116 23.5916C185.069 24.0355 183.805 24.2575 182.325 24.2575C180.858 24.2575 179.579 24.0326 178.49 23.5827C177.407 23.1329 176.561 22.4671 175.951 21.5852C175.347 20.6974 175.031 19.5996 175.001 18.2915H178.721C178.762 18.9012 178.937 19.4102 179.245 19.8185C179.558 20.221 179.976 20.5258 180.497 20.733C181.023 20.9342 181.618 21.0348 182.281 21.0348C182.932 21.0348 183.497 20.9401 183.977 20.7507C184.462 20.5613 184.838 20.2979 185.104 19.9606C185.37 19.6232 185.504 19.2356 185.504 18.7976C185.504 18.3892 185.382 18.0459 185.14 17.7678C184.903 17.4896 184.554 17.2528 184.092 17.0575C183.636 16.8622 183.077 16.6847 182.414 16.5249L180.434 16.0277C178.901 15.6548 177.691 15.0719 176.803 14.2788C175.916 13.4857 175.475 12.4174 175.481 11.0739C175.475 9.97301 175.768 9.01124 176.359 8.18857C176.957 7.36589 177.777 6.72372 178.819 6.26207C179.86 5.80043 181.044 5.5696 182.37 5.5696C183.719 5.5696 184.897 5.80043 185.903 6.26207C186.915 6.72372 187.702 7.36589 188.265 8.18857C188.827 9.01124 189.117 9.96413 189.135 11.0472H185.45ZM191.276 8.98757V5.81818H206.209V8.98757H200.643V24H196.843V8.98757H191.276Z" fill="#E8EAF0"/>
<path d="M208.668 24V5.81818H215.841C217.215 5.81818 218.386 6.0638 219.357 6.55504C220.334 7.04036 221.076 7.72988 221.585 8.62358C222.1 9.51136 222.358 10.556 222.358 11.7575C222.358 12.9648 222.097 14.0036 221.577 14.8736C221.056 15.7377 220.301 16.4006 219.313 16.8622C218.33 17.3239 217.141 17.5547 215.744 17.5547H210.941V14.4652H215.122C215.856 14.4652 216.466 14.3646 216.951 14.1634C217.436 13.9621 217.798 13.6603 218.034 13.2578C218.277 12.8554 218.398 12.3552 218.398 11.7575C218.398 11.1538 218.277 10.6448 218.034 10.2305C217.798 9.81617 217.434 9.50248 216.942 9.28942C216.457 9.07043 215.844 8.96094 215.105 8.96094H212.512V24H208.668ZM218.487 15.7259L223.006 24H218.762L214.341 15.7259H218.487ZM236.305 5.81818H240.149V17.6257C240.149 18.9515 239.832 20.1115 239.199 21.1058C238.572 22.1001 237.693 22.8755 236.562 23.4318C235.432 23.9822 234.115 24.2575 232.612 24.2575C231.102 24.2575 229.783 23.9822 228.652 23.4318C227.522 22.8755 226.643 22.1001 226.015 21.1058C225.388 20.1115 225.074 18.9515 225.074 17.6257V5.81818H228.919V17.2972C228.919 17.9897 229.069 18.6052 229.371 19.1438C229.679 19.6824 230.111 20.1056 230.667 20.4134C231.224 20.7211 231.872 20.875 232.612 20.875C233.357 20.875 234.006 20.7211 234.556 20.4134C235.112 20.1056 235.541 19.6824 235.843 19.1438C236.151 18.6052 236.305 17.9897 236.305 17.2972V5.81818ZM258.519 5.81818V24H255.199L247.289 12.5565H247.156V24H243.312V5.81818H246.685L254.533 17.2528H254.693V5.81818H258.519Z" fill="#FF6002"/>
<defs>
<linearGradient id="paint0_linear_1_15" x1="29" y1="16" x2="47" y2="16" gradientUnits="userSpaceOnUse">
<stop stop-color="#555E76"/>
<stop offset="1" stop-color="#FF6002"/>
</linearGradient>
<linearGradient id="paint1_linear_1_15" x1="75" y1="16" x2="93" y2="16" gradientUnits="userSpaceOnUse">
<stop stop-color="#FF6002"/>
<stop offset="1" stop-color="#22C55E"/>
</linearGradient>
</defs>
</svg>
