<svg width="120" height="47" viewBox="0 0 120 47" fill="none" xmlns="http://www.w3.org/2000/svg">
<path d="M18 9H26" stroke="url(#paint0_linear_4_2)" stroke-width="2.5" stroke-linecap="round"/>
<path d="M42 9H51" stroke="url(#paint1_linear_4_2)" stroke-width="2.5" stroke-linecap="round"/>
<path d="M9 17C13.4183 17 17 13.4183 17 9C17 4.58172 13.4183 1 9 1C4.58172 1 1 4.58172 1 9C1 13.4183 4.58172 17 9 17Z" stroke="#3f3f3f" stroke-width="2"/>
<path d="M34.1151 16.646C38.5333 16.646 42.1151 13.0643 42.1151 8.646C42.1151 4.22772 38.5333 0.645996 34.1151 0.645996C29.6968 0.645996 26.1151 4.22772 26.1151 8.646C26.1151 13.0643 29.6968 16.646 34.1151 16.646Z" fill="#FF6002"/>
<path d="M34.1151 12.646C36.3242 12.646 38.1151 10.8551 38.1151 8.646C38.1151 6.43686 36.3242 4.646 34.1151 4.646C31.9059 4.646 30.1151 6.43686 30.1151 8.646C30.1151 10.8551 31.9059 12.646 34.1151 12.646Z" stroke="white" stroke-opacity="0.28" stroke-width="1.5"/>
<path d="M59 17C63.4183 17 67 13.4183 67 9C67 4.58172 63.4183 1 59 1C54.5817 1 51 4.58172 51 9C51 13.4183 54.5817 17 59 17Z" fill="#22C55E"/>
<path d="M54 9.21742L56.6471 12.646L63 4.646" stroke="white" stroke-width="2.5" stroke-linecap="round" stroke-linejoin="round"/>
<path d="M1.88778 25.6336V22.4642H16.8203V25.6336H11.2539V40.646H7.45419V25.6336H1.88778ZM19.2795 40.646V22.4642H31.5309V25.6336H23.1236V29.966H30.9006V33.1353H23.1236V37.4766H31.5664V40.646H19.2795ZM44.4504 27.6932C44.3794 26.9771 44.0745 26.4207 43.536 26.0242C42.9974 25.6276 42.2664 25.4294 41.3431 25.4294C40.7158 25.4294 40.186 25.5182 39.754 25.6957C39.3219 25.8674 38.9905 26.1071 38.7597 26.4148C38.5348 26.7226 38.4223 27.0718 38.4223 27.4624C38.4105 27.7879 38.4785 28.072 38.6265 28.3147C38.7804 28.5573 38.9905 28.7674 39.2568 28.945C39.5232 29.1166 39.8309 29.2676 40.1801 29.3978C40.5293 29.5221 40.9022 29.6286 41.2987 29.7174L42.9323 30.108C43.7253 30.2856 44.4533 30.5223 45.1162 30.8182C45.7791 31.1142 46.3532 31.4781 46.8385 31.9102C47.3238 32.3423 47.6997 32.8513 47.966 33.4372C48.2383 34.0231 48.3773 34.6949 48.3833 35.4525C48.3773 36.5651 48.0932 37.5299 47.531 38.3466C46.9746 39.1575 46.1697 39.7878 45.1162 40.2376C44.0686 40.6815 42.805 40.9035 41.3254 40.9035C39.8576 40.9035 38.5792 40.6785 37.4901 40.2287C36.407 39.7789 35.5607 39.1131 34.9511 38.2312C34.3474 37.3434 34.0307 36.2455 34.0012 34.9375H37.721C37.7624 35.5472 37.937 36.0562 38.2448 36.4645C38.5584 36.867 38.9757 37.1718 39.4965 37.379C40.0233 37.5802 40.6181 37.6808 41.281 37.6808C41.932 37.6808 42.4972 37.5861 42.9767 37.3967C43.462 37.2073 43.8378 36.9439 44.1041 36.6066C44.3705 36.2692 44.5036 35.8816 44.5036 35.4436C44.5036 35.0352 44.3823 34.6919 44.1396 34.4138C43.9029 34.1356 43.5537 33.8988 43.0921 33.7035C42.6363 33.5082 42.077 33.3307 41.4142 33.1709L39.4344 32.6737C37.9015 32.3008 36.6911 31.7178 35.8034 30.9248C34.9156 30.1317 34.4746 29.0634 34.4806 27.7199C34.4746 26.619 34.7676 25.6572 35.3595 24.8346C35.9572 24.0119 36.777 23.3697 37.8186 22.9081C38.8603 22.4464 40.044 22.2156 41.3698 22.2156C42.7192 22.2156 43.897 22.4464 44.9031 22.9081C45.9152 23.3697 46.7024 24.0119 47.2646 24.8346C47.8269 25.6572 48.1169 26.6101 48.1347 27.6932H44.4504ZM50.2765 25.6336V22.4642H65.209V25.6336H59.6426V40.646H55.8429V25.6336H50.2765Z" fill="#161616"/>
<path d="M67.6681 40.646V22.4642H74.8414C76.2145 22.4642 77.3864 22.7098 78.3571 23.201C79.3336 23.6864 80.0764 24.3759 80.5854 25.2696C81.1003 26.1574 81.3578 27.202 81.3578 28.4035C81.3578 29.6108 81.0974 30.6495 80.5765 31.5196C80.0557 32.3837 79.3011 33.0466 78.3127 33.5082C77.3302 33.9699 76.1406 34.2007 74.7438 34.2007H69.9409V31.1112H74.1223C74.8562 31.1112 75.4658 31.0106 75.9512 30.8093C76.4365 30.6081 76.7975 30.3063 77.0343 29.9038C77.2769 29.5013 77.3983 29.0012 77.3983 28.4035C77.3983 27.7998 77.2769 27.2908 77.0343 26.8765C76.7975 26.4622 76.4335 26.1485 75.9423 25.9354C75.457 25.7164 74.8444 25.6069 74.1046 25.6069H71.5123V40.646H67.6681ZM77.487 32.3718L82.0059 40.646H77.7623L73.3411 32.3718H77.487ZM95.3049 22.4642H99.149V34.2717C99.149 35.5975 98.8323 36.7575 98.199 37.7518C97.5717 38.7461 96.6928 39.5215 95.5623 40.0778C94.4319 40.6282 93.115 40.9035 91.6117 40.9035C90.1025 40.9035 88.7826 40.6282 87.6522 40.0778C86.5217 39.5215 85.6428 38.7461 85.0154 37.7518C84.3881 36.7575 84.0744 35.5975 84.0744 34.2717V22.4642H87.9185V33.9432C87.9185 34.6357 88.0694 35.2512 88.3713 35.7898C88.679 36.3284 89.1111 36.7516 89.6674 37.0593C90.2238 37.3671 90.8719 37.521 91.6117 37.521C92.3574 37.521 93.0055 37.3671 93.5559 37.0593C94.1123 36.7516 94.5414 36.3284 94.8432 35.7898C95.151 35.2512 95.3049 34.6357 95.3049 33.9432V22.4642ZM117.519 22.4642V40.646H114.199L106.289 29.2025H106.156V40.646H102.312V22.4642H105.685L113.533 33.8988H113.693V22.4642H117.519Z" fill="#FF6002"/>
<defs>
<linearGradient id="paint0_linear_4_2" x1="18" y1="9" x2="26" y2="9" gradientUnits="userSpaceOnUse">
<stop stop-color="#555E76"/>
<stop offset="1" stop-color="#FF6002"/>
</linearGradient>
<linearGradient id="paint1_linear_4_2" x1="42" y1="9" x2="51" y2="9" gradientUnits="userSpaceOnUse">
<stop stop-color="#FF6002"/>
<stop offset="1" stop-color="#22C55E"/>
</linearGradient>
</defs>
</svg>
